<?xml version="1.0" standalone="no"?>
<!DOCTYPE svg PUBLIC "-//W3C//DTD SVG 20010904//EN"
 "http://www.w3.org/TR/2001/REC-SVG-20010904/DTD/svg10.dtd">
<svg version="1.0" xmlns="http://www.w3.org/2000/svg"
 width="1024.000000pt" height="1024.000000pt" viewBox="0 0 1024.000000 1024.000000"
 preserveAspectRatio="xMidYMid meet">

<g transform="translate(0.000000,1024.000000) scale(0.100000,-0.100000)"
fill="#000000" stroke="none">
<path d="M4114 6075 c-4 -9 15 -118 41 -243 78 -382 157 -747 162 -754 2 -5
42 -8 88 -8 71 0 84 3 89 18 4 17 67 337 104 537 13 69 21 92 25 75 3 -14 31
-160 64 -325 l58 -300 84 0 85 0 76 360 c125 582 137 644 132 650 -12 11 -170
5 -179 -7 -6 -7 -24 -98 -42 -203 -55 -331 -78 -442 -84 -415 -3 14 -20 99
-36 190 -59 317 -80 420 -86 430 -3 5 -39 10 -80 10 -62 0 -74 -3 -79 -17 -6
-24 -18 -86 -72 -378 -25 -137 -48 -252 -50 -254 -6 -6 -31 123 -79 414 -20
121 -39 223 -42 228 -2 4 -42 7 -89 7 -67 0 -86 -3 -90 -15z"/>
<path d="M5237 6084 c-4 -4 -7 -234 -7 -511 l0 -503 249 0 249 0 6 31 c8 40 8
103 0 123 -5 14 -29 16 -165 16 l-159 0 0 130 0 129 133 3 132 3 0 80 0 80
-132 3 -133 3 0 119 0 120 165 0 166 0 -3 88 -3 87 -246 3 c-135 1 -248 -1
-252 -4z"/>
<path d="M6051 6068 c-5 -13 -43 -180 -85 -373 -42 -192 -89 -408 -105 -480
-16 -71 -27 -133 -24 -137 2 -5 42 -8 88 -8 79 0 85 1 90 23 3 12 14 56 23 97
l17 75 116 3 116 3 12 -63 c7 -35 17 -80 22 -100 l10 -38 89 0 c71 0 90 3 90
14 0 13 -178 808 -212 946 l-13 55 -113 3 c-109 3 -113 2 -121 -20z m139 -324
c10 -49 30 -140 43 -201 l25 -113 -87 0 -87 0 40 204 c23 112 42 203 44 201 2
-2 12 -43 22 -91z"/>
<path d="M6490 6071 c-11 -21 -13 -103 -4 -138 6 -22 11 -23 110 -23 l104 0 0
-420 0 -420 84 0 c68 0 85 3 90 16 4 9 6 197 6 418 l-1 401 98 5 98 5 3 79 c2
57 -1 82 -10 87 -7 5 -138 9 -290 9 -264 0 -278 -1 -288 -19z"/>
<path d="M7202 6082 c-10 -7 -12 -115 -10 -508 l3 -499 85 0 85 0 3 218 2 217
115 0 115 0 2 -217 3 -218 88 -3 87 -3 -2 508 -3 508 -85 0 -85 0 -3 -202 -2
-203 -105 0 c-58 0 -108 0 -112 0 -5 0 -10 91 -13 202 l-5 203 -75 3 c-41 1
-81 -2 -88 -6z"/>
<path d="M7932 6078 c-9 -9 -12 -129 -12 -494 0 -265 3 -489 6 -498 5 -14 38
-16 260 -16 l254 0 0 85 0 85 -165 0 -165 0 0 130 0 129 133 3 132 3 3 68 c2
42 -2 74 -9 83 -9 11 -41 14 -135 14 l-124 0 0 120 0 120 163 2 162 3 0 85 0
85 -245 3 c-183 2 -249 -1 -258 -10z"/>
<path d="M8571 6076 c-8 -9 -10 -151 -9 -507 l3 -494 84 -3 c61 -2 87 1 92 10
5 7 9 89 9 181 l0 168 47 -3 47 -3 52 -150 c28 -82 57 -162 63 -177 10 -28 12
-28 101 -28 49 0 90 4 90 8 0 8 -84 242 -119 329 l-21 53 39 25 c22 15 50 48
66 77 24 44 29 67 33 151 10 209 -49 319 -194 363 -66 20 -367 20 -383 0z
m362 -195 c32 -31 32 -33 32 -131 0 -98 -1 -100 -31 -130 -27 -28 -39 -32
-107 -37 l-77 -6 0 173 0 173 76 -5 c69 -5 79 -8 107 -37z"/>
<path d="M2842 5900 c-108 -29 -187 -75 -273 -161 -92 -91 -152 -203 -173
-321 -9 -55 -16 -72 -27 -69 -200 57 -286 64 -408 36 -152 -36 -299 -148 -357
-272 -27 -58 -29 -60 -80 -71 -232 -48 -394 -281 -354 -510 22 -127 106 -248
220 -315 98 -57 98 -57 896 -57 l731 0 39 26 c49 34 56 43 105 137 28 55 47
81 66 88 14 5 88 9 165 8 132 -2 140 -1 163 21 16 15 25 34 25 54 -1 94 -24
106 -210 106 -161 0 -152 -7 -126 104 22 91 13 88 258 90 117 1 221 5 231 10
48 23 61 112 22 151 -22 23 -32 25 -120 25 -52 0 -95 2 -95 4 0 2 13 32 30 67
16 36 36 105 45 156 35 201 -29 389 -182 540 -152 151 -377 209 -591 153z"/>
<path d="M4890 4821 c-51 -16 -89 -42 -123 -82 -61 -71 -69 -107 -74 -360 -7
-313 9 -395 93 -469 50 -43 93 -60 173 -67 101 -8 169 15 236 80 82 80 87 107
83 435 -3 254 -4 269 -26 317 -50 107 -115 147 -247 152 -49 1 -101 -1 -115
-6z m158 -167 c49 -34 56 -66 60 -265 5 -235 -6 -313 -48 -351 -23 -22 -40
-28 -75 -28 -59 0 -94 30 -106 90 -11 58 -11 412 0 470 17 83 106 128 169 84z"/>
<path d="M6850 4821 c-73 -22 -134 -77 -167 -149 -15 -31 -18 -79 -21 -315 -4
-319 2 -354 70 -431 53 -61 109 -81 218 -80 101 1 160 24 214 85 42 45 68 128
64 196 l-3 48 -82 3 -83 3 0 -52 c0 -45 -4 -55 -34 -85 -37 -37 -82 -45 -130
-23 -53 25 -58 50 -54 332 l3 259 33 29 c53 47 132 36 163 -24 7 -12 15 -46
18 -77 l6 -55 50 -3 c27 -2 65 0 84 3 l34 6 -5 73 c-8 127 -61 209 -161 251
-38 16 -171 20 -217 6z"/>
<path d="M8142 4804 c-125 -62 -174 -211 -114 -346 26 -60 90 -119 204 -190
123 -76 148 -104 148 -167 0 -36 -5 -52 -22 -69 -31 -28 -70 -36 -111 -23 -48
16 -67 41 -75 98 l-7 48 -80 0 -80 0 -3 -50 c-5 -70 13 -120 61 -173 52 -56
108 -82 195 -89 210 -17 346 142 291 342 -24 87 -61 123 -251 245 -82 52 -104
77 -114 128 -15 75 52 135 127 113 44 -13 61 -38 69 -101 l5 -45 80 0 80 0 3
38 c6 70 -25 147 -78 199 -57 55 -96 68 -201 68 -61 0 -85 -5 -127 -26z"/>
<path d="M4145 4808 c-3 -7 -4 -222 -3 -478 l3 -465 88 -3 87 -3 0 185 0 185
123 3 122 3 3 83 3 82 -126 0 -125 0 0 125 0 124 153 3 152 3 3 83 3 82 -241
0 c-183 0 -242 -3 -245 -12z"/>
<path d="M5408 4814 c-5 -4 -8 -220 -8 -481 l0 -473 90 0 90 0 0 160 0 160 40
0 c45 0 50 -7 82 -103 11 -34 33 -97 50 -139 l29 -78 90 0 c106 0 103 -23 22
185 -30 77 -56 147 -59 155 -3 10 8 25 32 40 63 42 88 104 93 233 5 171 -30
257 -130 312 -54 30 -56 30 -234 33 -99 2 -183 0 -187 -4z m328 -179 c48 -31
66 -115 44 -210 -14 -63 -48 -85 -131 -85 l-69 0 0 161 0 162 65 -5 c36 -3 77
-13 91 -23z"/>
<path d="M6090 4778 c-1 -75 -1 -892 -1 -905 1 -10 55 -13 236 -13 l235 0 5
23 c4 13 5 48 3 78 l-3 54 -152 3 -153 3 0 119 0 120 125 0 126 0 -3 83 -3 82
-120 2 -120 1 -3 111 -3 110 153 3 153 3 0 80 0 80 -237 3 -238 2 0 -42z"/>
<path d="M7506 4803 c-8 -26 -206 -929 -206 -939 0 -3 39 -3 88 -2 l87 3 19
87 19 86 104 7 c57 4 106 5 109 2 3 -3 15 -45 27 -94 l22 -88 89 -3 89 -3 -6
28 c-14 62 -208 899 -213 916 -5 15 -19 17 -114 17 -95 0 -109 -2 -114 -17z
m158 -423 c20 -96 36 -178 36 -182 0 -5 -33 -8 -74 -8 -41 0 -77 3 -79 8 -7
11 67 372 74 364 4 -4 23 -86 43 -182z"/>
<path d="M8604 4807 c-3 -8 -4 -45 -2 -83 l3 -69 97 -3 98 -3 2 -392 3 -392
85 0 85 0 3 392 2 392 88 3 87 3 0 80 0 80 -273 3 c-223 2 -273 0 -278 -11z"/>
<path d="M2508 3978 c-13 -18 -47 -69 -75 -113 -157 -251 -171 -278 -180 -365
-12 -118 50 -231 159 -286 97 -49 238 -24 315 57 74 79 97 210 55 315 -15 37
-217 381 -247 422 -1 1 -13 -12 -27 -30z m17 -21 c-10 -8 -15 -18 -12 -24 3
-5 0 -10 -8 -10 -8 0 -15 3 -15 5 0 10 33 42 43 42 6 0 3 -6 -8 -13z m49 -43
c3 -8 2 -12 -4 -9 -6 3 -10 10 -10 16 0 14 7 11 14 -7z m159 -279 c-3 -9 -8
-14 -10 -11 -3 3 -2 9 2 15 9 16 15 13 8 -4z m27 -26 c0 -6 -4 -7 -10 -4 -5 3
-10 11 -10 16 0 6 5 7 10 4 6 -3 10 -11 10 -16z m19 -59 c0 -10 -3 -8 -9 5
-12 27 -12 43 0 25 5 -8 9 -22 9 -30z m-16 -200 c-3 -11 -10 -23 -16 -27 -5
-3 -7 -1 -3 5 3 6 1 14 -6 18 -8 5 -6 10 8 15 10 4 20 8 21 8 0 1 -1 -8 -4
-19z m-29 -35 c3 -8 1 -15 -4 -15 -6 0 -10 7 -10 15 0 8 2 15 4 15 2 0 6 -7
10 -15z m-47 -60 c-33 -29 -47 -32 -47 -9 0 10 5 14 15 10 9 -3 18 1 21 9 4 8
14 15 23 15 12 -1 9 -7 -12 -25z"/>
</g>
</svg>
